<svg id="Capa_1" enable-background="new 0 0 512 512" height="512" viewBox="0 0 512 512" width="512" xmlns="http://www.w3.org/2000/svg"><g><path d="m347.383 206.194c-22.603-24.882-55.2-40.528-91.384-40.528-36.183 0-68.78 15.645-91.383 40.526-.465.408-.886.875-1.248 1.406-19.181 21.765-30.837 50.313-30.837 81.536s11.656 59.772 30.838 81.537c.36.529.781.995 1.244 1.402 22.603 24.882 55.201 40.528 91.385 40.528 36.208 0 68.824-15.667 91.429-40.578.424-.379.809-.808 1.145-1.291 19.214-21.773 30.892-50.345 30.892-81.598 0-31.223-11.656-59.771-30.837-81.536-.359-.53-.78-.997-1.244-1.404zm-6.84 150.806c-7.967-3.904-16.89-7.215-26.49-9.864 4.186-15.147 6.756-32.232 7.311-50.502h42.837c-1.561 22.754-10.171 43.598-23.658 60.366zm-192.747-60.366h42.837c.555 18.271 3.126 35.356 7.311 50.502-9.6 2.649-18.523 5.96-26.49 9.864-13.487-16.768-22.096-37.612-23.658-60.366zm23.659-75.368c7.967 3.904 16.89 7.215 26.49 9.865-4.186 15.147-6.757 32.232-7.311 50.503h-42.837c1.561-22.755 10.17-43.6 23.658-60.368zm77.044 2.244c-10.72-.359-21.185-1.48-31.099-3.299 1.335-3.379 2.763-6.637 4.307-9.724 7.551-15.102 17.023-25.064 26.792-28.491zm0 15.017v43.107h-42.846c.548-16.765 2.926-32.766 6.941-47.072 11.436 2.224 23.541 3.573 35.905 3.965zm0 58.107v43.107c-12.364.392-24.469 1.741-35.905 3.965-4.015-14.306-6.394-30.307-6.941-47.072zm0 58.124v41.514c-9.769-3.427-19.241-13.389-26.792-28.491-1.544-3.087-2.971-6.345-4.307-9.724 9.914-1.819 20.379-2.941 31.099-3.299zm15 0c10.721.359 21.185 1.48 31.099 3.299-1.335 3.379-2.763 6.637-4.307 9.724-7.551 15.102-17.023 25.064-26.792 28.491zm0-15.017v-43.107h42.846c-.548 16.766-2.926 32.766-6.941 47.072-11.436-2.225-23.541-3.574-35.905-3.965zm0-58.107v-43.107c12.365-.392 24.469-1.741 35.905-3.965 4.015 14.307 6.394 30.307 6.941 47.072zm0-58.124v-41.515c9.769 3.427 19.241 13.389 26.792 28.491 1.544 3.087 2.972 6.346 4.307 9.724-9.914 1.82-20.378 2.941-31.099 3.3zm30.043-36.142c13.566 5.021 25.859 12.684 36.259 22.356-6.249 2.766-13.095 5.148-20.38 7.13-4.34-11.5-9.711-21.472-15.879-29.486zm-90.965 29.486c-7.285-1.981-14.132-4.363-20.38-7.13 10.4-9.673 22.693-17.336 36.259-22.356-6.168 8.014-11.539 17.986-15.879 29.486zm0 144.559c4.339 11.5 9.711 21.472 15.879 29.486-13.566-5.021-25.859-12.684-36.259-22.356 6.249-2.767 13.095-5.149 20.38-7.13zm106.843 0c7.285 1.981 14.132 4.363 20.381 7.129-10.401 9.673-22.693 17.336-36.259 22.356 6.168-8.013 11.539-17.985 15.878-29.485zm11.945-79.779c-.555-18.271-3.126-35.356-7.311-50.503 9.6-2.649 18.523-5.961 26.49-9.865 13.487 16.768 22.097 37.613 23.659 60.367h-42.838z"/><path d="m512 123.467c0-.013-.002-.026-.002-.039v-33.096c0-22.405-18.227-40.633-40.632-40.633h-430.734c-22.404 0-40.632 18.228-40.632 40.633v331.336c0 22.405 18.228 40.633 40.632 40.633h366.035c4.143 0 7.5-3.357 7.5-7.5s-3.357-7.5-7.5-7.5h-366.035c-14.134 0-25.632-11.499-25.632-25.633v-290.701h60.331c4.143 0 7.5-3.357 7.5-7.5s-3.357-7.5-7.5-7.5h-60.331v-25.635c0-14.134 11.498-25.633 25.632-25.633h430.734c14.134 0 25.632 11.499 25.632 25.633v25.635h-391.667c-4.143 0-7.5 3.357-7.5 7.5s3.357 7.5 7.5 7.5h391.667v290.701c0 14.134-11.498 25.633-25.632 25.633h-34.699c-4.143 0-7.5 3.357-7.5 7.5s3.357 7.5 7.5 7.5h34.699c22.404 0 40.632-18.228 40.632-40.633v-298.162c0-.014.002-.026.002-.039z"/><path d="m435.529 363.744c2.03 0 4.054-.819 5.533-2.435 18.083-19.749 28.042-45.381 28.042-72.176 0-26.793-9.958-52.424-28.04-72.172-2.798-3.056-7.541-3.267-10.596-.467-3.056 2.797-3.265 7.541-.467 10.596 15.543 16.976 24.103 39.01 24.103 62.043 0 23.035-8.561 45.069-24.104 62.045-2.798 3.056-2.589 7.8.467 10.597 1.438 1.319 3.253 1.969 5.062 1.969z"/><path d="m400.242 333.933c-3.156 2.683-3.54 7.416-.856 10.571 1.483 1.745 3.594 2.643 5.718 2.643 1.717 0 3.443-.587 4.854-1.786 16.532-14.053 26.014-34.547 26.014-56.227 0-21.678-9.48-42.171-26.012-56.224-3.154-2.685-7.889-2.3-10.571.856-2.684 3.155-2.3 7.889.856 10.571 13.172 11.198 20.727 27.526 20.727 44.796-.001 17.272-7.557 33.6-20.73 44.8z"/><path d="m70.936 216.961c-18.083 19.749-28.042 45.381-28.042 72.176 0 26.793 9.958 52.424 28.04 72.172 1.479 1.616 3.503 2.436 5.533 2.436 1.809 0 3.623-.65 5.063-1.969 3.056-2.797 3.265-7.541.467-10.596-15.543-16.976-24.103-39.01-24.103-62.043 0-23.035 8.561-45.069 24.104-62.046 2.798-3.055 2.589-7.799-.467-10.596-3.052-2.797-7.798-2.589-10.595.466z"/><path d="m111.756 244.338c3.156-2.683 3.54-7.416.856-10.571-2.683-3.156-7.416-3.539-10.571-.856-16.532 14.053-26.014 34.547-26.014 56.226 0 21.678 9.48 42.171 26.012 56.224 1.41 1.2 3.137 1.786 4.854 1.786 2.124 0 4.234-.898 5.718-2.643 2.684-3.155 2.3-7.889-.856-10.571-13.172-11.198-20.727-27.526-20.727-44.796-.001-17.272 7.555-33.6 20.728-44.799z"/><path d="m40.632 82.833c-4.143 0-7.5 3.357-7.5 7.5s3.357 7.5 7.5 7.5h16.566c4.143 0 7.5-3.357 7.5-7.5s-3.357-7.5-7.5-7.5z"/><path d="m90.332 97.833h16.566c4.143 0 7.5-3.357 7.5-7.5s-3.357-7.5-7.5-7.5h-16.566c-4.143 0-7.5 3.357-7.5 7.5s3.357 7.5 7.5 7.5z"/><path d="m156.599 97.833c4.143 0 7.5-3.357 7.5-7.5s-3.357-7.5-7.5-7.5h-16.566c-4.143 0-7.5 3.357-7.5 7.5s3.357 7.5 7.5 7.5z"/><path d="m388.532 97.833c4.143 0 7.5-3.357 7.5-7.5s-3.357-7.5-7.5-7.5h-165.667c-4.143 0-7.5 3.357-7.5 7.5s3.357 7.5 7.5 7.5z"/></g></svg>